# xmcd
#
# Track frame offsets:
#	150
#	25180
#	53145
#	84397
#	105340
#	128967
#	156132
#	180092
#	204870
#	228297
#
# Disc length: 3371 seconds
#
# Revision: 1
# Processed by: cddbd v1.5.2PL0 Copyright (c) Steve Scherf et al.
# Submitted via: EZCDAudioConverter 8.0.2.1
#
DISCID=690d290a
DTITLE=Various Artist - st. Tùng Giang
DYEAR=1988
DGENRE=
TTITLE0=Duy Quang - Biết đến thuở nào
TTITLE1=Khánh Hà - Anh đã quên mùa thu
TTITLE2=Duy Quang - Tôi với trời bơ vơ
TTITLE3=Kim Anh - Đêm cuối cùng bên anh
TTITLE4=Thái Hiền - Ta hôn nhau trong công viên
TTITLE5=Sĩ Phú - Biển vắng
TTITLE6=Thái Hiền - Người yêu ơi giã biệt
TTITLE7=Duy Quang - Điệp khúc buồn
TTITLE8=Khánh Hà - Người tình người đẹp xinh xinh
TTITLE9=Elvis Phương - Từ khi anh gặp em
EXTD=
EXTT0=
EXTT1=
EXTT2=
EXTT3=
EXTT4=
EXTT5=
EXTT6=
EXTT7=
EXTT8=
EXTT9=
PLAYORDER=
